<?xml version="1.0" encoding="utf-8"?>
<svg version="1.1" xmlns:xlink="http://www.w3.org/1999/xlink" width="50px" height="48px" xmlns="http://www.w3.org/2000/svg">
  <g transform="matrix(1 0 0 1 -912 -972 )">
    <path d="M 49.0483917228751 18.2765543106956  C 49.0483917228751 23.3752703955609  44.9595154565492 27.5353041138895  39.8535359259125 27.6314253459357  C 36.895266979463 27.6179299573123  34.1282491888241 26.1693459840573  32.43479714992 23.7475811115312  C 30.7508329139128 26.1796539414185  27.9781996731895 27.6312722239125  25.0168338983205 27.6312722239125  C 22.0554681234515 27.6312722239125  19.2828348827282 26.1796539414185  17.598870646721 23.7475811115312  C 17.2440406581908 24.2468656827978  16.8420221567507 24.71098824659  16.3983471626436 25.1335621928166  C 14.5135911977935 26.9240541102039  11.9500141761779 27.821195589545  9.35806797113567 27.5973565066163  C 4.47840303664447 26.9742817473869  0.856521118603972 22.7748903559758  0.963709966191653 17.8645171871456  C 0.963754477175647 16.6183173475044  1.24527560157803 15.3881699285354  1.78732491457031 14.2656121134216  L 5.90850175403519 5.7484098147448  C 7.32185257309326 2.72448500166165  10.3556707911509 0.785996228970884  13.6979448251418 1  L 36.3015995346808 1  C 39.6436086674201 0.7839145912467  42.677984144801 2.72155294259662  44.0910426057874 5.7453126805293  L 48.2230769230769 14.2888408468809  C 48.7543195352462 15.390428783369  49.0355439422377 16.5954852077986  49.0466918714556 17.8180597202268  L 49.0466918714556 18.0983531342155  C 49.0478250800402 18.1577467919984  49.0483917228751 18.2171498778601  49.0483917228751 18.2765543106956  Z M 39.8612912607242 30.8818994177694  L 39.8535359259125 27.6314253459357  L 39.8535359259125 30.8834480302457  C 36.8949820205328 30.8695987119561  34.1279072420287 29.4204072960276  32.43479714992 26.9980551833648  C 30.7512777821667 29.430779736648  27.9784837490446 30.8829214796746  25.0168338983205 30.8829214796746  C 22.0551840475964 30.8829214796746  19.2823900144743 29.430779736648  17.598870646721 26.9980551833648  C 17.2446212810717 27.5001735265476  16.8425763300443 27.9669196650426  16.3983471626436 28.3917791909263  C 14.5135912055652 30.182271124796  11.9500141829913 31.0794126209925  9.35806797113567 30.8555735500945  C 7.42431482431416 30.6683546045978  5.60705142243565 29.8472115894129  5 28.5203115311909  L 5 38.5257013383743  C 4.12076445164291 43.2497591097535  7.89019713862834 47.140545887786  12.6215064708448 47  L 37.4137123745819 47  C 42.1493185033734 47.1413970536209  45.9211803712174 43.2446631786936  45.8468469627018 38.5164098449906  L 45.8468469627018 28.5807062381853  C 44.2037012707251 30.0577184345475  42.0722792883714 30.8771600992516  39.8612912607242 30.8818994177694  Z " fill-rule="nonzero" fill="#ffffff" stroke="none" transform="matrix(1 0 0 1 912 972 )" />
  </g>
</svg>