<?xml version="1.0" encoding="utf-8"?>
<svg version="1.1" xmlns:xlink="http://www.w3.org/1999/xlink" width="54px" height="54px" xmlns="http://www.w3.org/2000/svg">
  <g transform="matrix(1 0 0 1 -635 -456 )">
    <path d="M 18.7681736132812 45.8277969140625  L 18.7681736132812 45.89866453125  C 18.384307265625 45.89866453125  18.1028053125 45.928192734375  17.9374474804687 45.928192734375  L 17.7425615039062 45.928192734375  C 13.651924453125 45.928192734375  10.3565796679687 42.6564704882813  10.2424040039062 38.5717390429687  C 10.1794105664062 36.5657913867188  10.9038352148437 34.6248058007812  12.2778798046875 33.16611375  C 13.6519243945313 31.7074216992188  15.5102311523438 30.8530730273437  17.51617875 30.7959852539062  C 17.5358641992188 30.7959852539062  17.7366558398437 30.784173984375  17.7543727148438 30.784173984375  C 19.3252718554687 30.784173984375  20.831208984375 31.2763102734375  22.1265117773438 32.2192434960937  C 23.9434790625 32.8609892578125  25.780131796875 31.9633325976563  27.5734765429687 29.5577702929687  C 29.358947109375 27.1699248632813  29.7349392773438 25.2761843554687  28.68964171875 23.9316679101562  C 28.317586640625 23.6639457421875  27.95931140625 23.34504140625  27.6049732617188 22.9670807226562  C 27.5419798242188 22.9060558007812  27.4848919921875 22.8410938476562  27.429772734375 22.7721947460937  C 26.2565197265625 21.44736375  25.5832772460938 19.7701631835937  25.5301265625 18.0417804492187  C 25.4159509570312 13.8960240820312  28.6837361132813 10.4313844335937  32.811775546875 10.3152402539062  C 32.8314609960937 10.3152402539062  33.0243784570312 10.3113031640625  33.0420953320313 10.3113031640625  C 36.51460921875 10.3113031640625  39.5855398242187 12.7719847265625  40.3414611914062 16.1657568164062  C 40.951710234375 18.0496546289062  42.5107981054688 25.5124097460937  35.0126091210937 35.5362423046875  C 28.0754556445312 44.82580734375  21.3430308398437 45.8277969140625  18.7681736132812 45.8277969140625  Z M 18.5260425585938 42.0422843554687  C 19.6461448242188 42.06787546875  25.5320951953125 41.9103918164062  31.9751438671875 33.2724151757812  C 38.5559906835938 24.4730177929688  37.057927734375 18.3016283789062  36.6898098046875 17.15199796875  C 36.2705096484375 15.3114081445312  34.75276125 14.0928786328125  33.0342212109375 14.0928786328125  C 30.864884296875 14.1539035546875  29.2467401367187 15.874412109375  29.3018593945312 17.9335104492188  C 29.3353246875 19.0260530859375  29.8530520898438 19.8233139257813  30.2802263671875 20.295764765625  C 30.2940062109375 20.311513125  30.3077859960938 20.327261484375  30.319597265625 20.34300984375  C 30.5577912304687 20.6008892578125  30.7802368359375 20.79380671875  31.0026825 20.9375105273437  C 31.14244921875 21.0300321679687  31.2723731835938 21.1402706835937  31.3826117578125 21.2662575585937  C 32.542084921875 22.5733716210937  34.7862265429687 26.2191174609375  30.5971621875 31.8196287304687  C 27.8923809960937 35.4397834570312  25.118700703125 36.1976733984375  23.2702366992187 36.1996419726562  C 22.3194293554688 36.1996419726562  21.3745276171875 36.0047559960937  20.4630911132813 35.6248267382813  C 20.3056075195313 35.5598647265625  20.155998046875 35.471280234375  20.0221369921875 35.36497875  C 19.5516546679688 34.9948922460937  18.7760478515625 34.5519695507813  17.7524043164063 34.5519695507813  C 16.6303335351563 34.5834662695313  15.7110228515625 34.9968607617188  15.031874765625 35.7173483789063  C 14.3507581054688 36.4417730273438  13.9924828710938 37.3886433398437  14.022011015625 38.382758671875  C 14.0790988476563 40.4142973828125  15.7149599414063 42.0009448828125  17.7425615625 42.0009448828125  C 17.7524043164063 42.0009448828125  17.7543728320313 42.0029134570312  17.7464986523438 42.0048819726563  C 17.8173662695312 41.993070703125  17.8941395507813 41.9832279492188  17.9394161132813 41.979290859375  C 18.1382391210938 41.9812594335937  18.3370621875 41.9970077929688  18.5260425585938 42.0422843554687  Z M 27.2171699414063 53.6881981640625  C 23.6600086523437 53.6881981640625  20.2091487890625 52.9933016601562  16.9590805078125 51.62713125  C 15.9964618945313 51.2196423632813  15.5456650195312 50.1133199414063  15.9511853320313 49.1507012695312  C 16.3567056445313 48.1861140820312  17.464996640625 47.739254296875  18.4276153125 48.1408375195313  C 21.2091697851562 49.3101534375  24.1659247851563 49.9066226367188  27.2171699414063 49.9066226367188  C 39.7292436914063 49.9066226367188  49.9066227539062 39.7292435742187  49.9066227539062 27.2171698242188  C 49.9066227539062 14.7070646484375  39.7292436914063 4.52771701171875  27.2171699414063 4.52771701171875  C 14.7050961914062 4.52771701171875  4.52771712890625 14.7070647070313  4.52771712890625 27.2191384570312  C 4.52771712890625 31.4967873046875  5.72459267578125 35.6622291210938  7.9884196875 39.2666354882812  C 8.5415808984375 40.1524808789062  8.2758273046875 41.3178596484375  7.39195048828125 41.8729894335937  C 6.508073671875 42.42811921875  5.340726328125 42.1623655664062  4.78559654296875 41.276520234375  C 2.13987169921875 37.0658019140625  0.7441730859375 32.2054636523437  0.7441730859375 27.2191384570312  C 0.7441730859375 12.624343828125  12.6184381640625 0.748110175781242  27.2152013671875 0.748110175781242  C 41.8119645703125 0.748110175781242  53.6862296484375 12.6223752539062  53.6862296484375 27.2191384570312  C 53.6862296484375 41.8139330859375  41.8119645703125 53.6881981640625  27.2171699414063 53.6881981640625  Z " fill-rule="nonzero" fill="#31d0e6" stroke="none" transform="matrix(1 0 0 1 635 456 )" />
  </g>
</svg>