<?xml version="1.0" encoding="utf-8"?>
<svg version="1.1" xmlns:xlink="http://www.w3.org/1999/xlink" width="50px" height="50px" xmlns="http://www.w3.org/2000/svg">
  <g transform="matrix(1 0 0 1 -492 -970 )">
    <path d="M 32.798828125 3.810546875  C 32.798828125 1.87109375  31.22265625 0.294921875  29.283203125 0.294921875  L 21.197265625 0.294921875  C 19.2578125 0.294921875  17.681640625 1.87109375  17.681640625 3.810546875  C 17.681640625 4.279296875  18.0625 4.66015625  18.53125 5  L 31.94921875 5  C 32.41796875 4.66015625  32.798828125 4.279296875  32.798828125 3.810546875  Z M 40.48046875 8.029296875  C 39.619140625 6.6640625  38.119140625 5.83203125  36.501953125 6  L 13.45703125 6  C 11.8046875 5.83203125  10.275390625 6.69921875  9.431640625 8.1171875  L 4.05859375 20.08203125  C 3.958984375 20.3046875  3.794921875 20.4921875  3.583984375 20.615234375  L 1.205078125 22.00390625  C 0.771484375 22.73046875  0.542968750000001 23.5625  1 24.40625  L 1 41.984375  L 0.554687500000001 41.984375  L 0.554687500000001 45.634765625  C 0.554687500000001 47.57421875  2.130859375 49.150390625  4.0703125 49.150390625  L 4.345703125 49.150390625  C 6.28515625 49.150390625  7.861328125 47.57421875  7.861328125 45.634765625  L 7.861328125 43.15625  C 7.861328125 42.51171875  8.388671875 41.984375  9.033203125 42  L 40.8671875 42  C 41.51171875 41.984375  42.0390625 42.51171875  42.0390625 43.15625  L 42.0390625 45.634765625  C 42.0390625 47.57421875  43.615234375 49.150390625  45.5546875 49.150390625  L 45.830078125 49.150390625  C 47.76953125 49.150390625  49.345703125 47.57421875  49.345703125 45.634765625  L 49.345703125 41.984375  L 49 41.984375  L 49 24.46484375  C 49.357421875 23.5859375  49.111328125 22.71875  48.642578125 21.974609375  L 46.36328125 20.76171875  C 46.12890625 20.638671875  45.947265625 20.439453125  45.841796875 20.19921875  L 40.48046875 8.029296875  Z M 13.580078125 13.900390625  C 14.435546875 12.529296875  15.94140625 11.69140625  17.55859375 12  L 32.46484375 12  C 34.041015625 11.69140625  35.51171875 12.482421875  36.37890625 13.80078125  L 39.109375 19.712890625  C 39.900390625 21.271484375  38.76953125 23.1171875  37.017578125 24  L 13.140625 24  C 11.46484375 23.1171875  10.333984375 21.412109375  10.978515625 19.865234375  L 13.580078125 13.900390625  Z M 13.45703125 33.154296875  C 13.38671875 35.298828125  11.634765625 37.05078125  9.490234375 37.12109375  C 7.1171875 37.197265625  5.18359375 35.2578125  5.25390625 32.884765625  C 5.32421875 30.734375  7.0703125 28.98828125  9.220703125 28.91796875  C 11.59375 28.841796875  13.52734375 30.78125  13.45703125 33.154296875  Z M 44.62890625 33.154296875  C 44.55859375 35.298828125  42.806640625 37.05078125  40.662109375 37.12109375  C 38.2890625 37.197265625  36.35546875 35.2578125  36.42578125 32.884765625  C 36.49609375 30.734375  38.2421875 28.98828125  40.392578125 28.91796875  C 42.765625 28.841796875  44.69921875 30.78125  44.62890625 33.154296875  Z " fill-rule="nonzero" fill="#ffffff" stroke="none" transform="matrix(1 0 0 1 492 970 )" />
  </g>
</svg>