<?xml version="1.0" encoding="utf-8"?>
<svg version="1.1" xmlns:xlink="http://www.w3.org/1999/xlink" width="50px" height="50px" xmlns="http://www.w3.org/2000/svg">
  <g transform="matrix(1 0 0 1 -632 -968 )">
    <path d="M 50 4.9949373046875  C 49.9992450689259 2.23645259498641  47.7628577941038 0.000624913644130573  45.0043729980469 0.000625  C 42.245745298307 0.000625000000000484  40.0094356933594 2.23693460494767  40.0094356933594 4.9955623046875  C 40.0094356933594 4.9955623046875  40.0094356933594 4.9955623046875  40 4.9955623046875  L 40 24  L 1.96553813476562 24  C 1.96512143504124 24.0765725862931  1.96470473524085 24.0765724536585  1.96428803543203 24.0765724536585  C 0.879996390563273 24.0765724536585  0.000907673599252113 24.9553816033387  0.00056279296875 26.0396731933594  C 0.00056279296875 26.6021661132813  -0.133810498046875 31.5058545898438  4.00051259765625 35.9926732910156  C 7.85671420898437 40.1801207519531  16.0003620117188 43.9825729980469  16.0003620117188 43.9825729980469  L 16.0003620117187 45.5625531738281  C 15.9838133386461 45.7109362228869  15.9754674090086 45.8601195888258  15.9753623046875 46.0094225585937  C 15.9753621736291 46.0098400249646  15.9753621080999 46.0102574913455  15.9753621080999 46.0106749577369  C 15.9753621080999 48.2139182903886  17.7614437266201 49.9999999089088  19.9646870592718 49.9999999089088  C 19.9661454421842 49.9999999089088  19.9676038249959 49.9999991091943  19.9690622070313 50  L 46.0099854003906 50  C 48.2133298485005 49.9999975367934  49.9995901899564 48.2140169796759  50 46.0106725585938  L 50 4.9949373046875  Z " fill-rule="nonzero" fill="#ffffff" stroke="none" transform="matrix(1 0 0 1 632 968 )" />
  </g>
</svg>