<?xml version="1.0" encoding="utf-8"?>
<svg version="1.1" xmlns:xlink="http://www.w3.org/1999/xlink" width="24px" height="24px" xmlns="http://www.w3.org/2000/svg">
  <g transform="matrix(1 0 0 1 -635 -346 )">
    <path d="M 23.9488636363636 18.5965909090909  C 23.9829545454545 18.6761363636364  24 18.7954545454545  24 18.9545454545455  C 24 19.2613636363636  23.9431818181818 19.6619318181818  23.8295454545455 20.15625  C 23.7159090909091 20.6505681818182  23.5965909090909 21.0397727272727  23.4715909090909 21.3238636363636  C 23.2329545454545 21.8920454545455  22.5397727272727 22.4943181818182  21.3920454545455 23.1306818181818  C 20.3238636363636 23.7102272727273  19.2670454545455 24  18.2215909090909 24  C 17.9147727272727 24  17.6136363636364 23.9801136363636  17.3181818181818 23.9403409090909  C 17.0227272727273 23.9005681818182  16.6960227272727 23.8295454545455  16.3380681818182 23.7272727272727  C 15.9801136363636 23.625  15.7130681818182 23.5426136363636  15.5369318181818 23.4801136363636  C 15.3607954545455 23.4176136363636  15.0454545454545 23.3011363636364  14.5909090909091 23.1306818181818  C 14.1363636363636 22.9602272727273  13.8579545454545 22.8579545454545  13.7556818181818 22.8238636363636  C 12.6420454545455 22.4261363636364  11.6477272727273 21.9545454545455  10.7727272727273 21.4090909090909  C 9.32954545454546 20.5113636363636  7.82954545454546 19.2840909090909  6.27272727272727 17.7272727272727  C 4.71590909090909 16.1704545454545  3.48863636363636 14.6704545454545  2.59090909090909 13.2272727272727  C 2.04545454545455 12.3522727272727  1.57386363636364 11.3579545454545  1.17613636363636 10.2443181818182  C 1.14204545454545 10.1420454545455  1.03977272727273 9.86363636363636  0.869318181818182 9.40909090909091  C 0.698863636363636 8.95454545454545  0.582386363636364 8.63920454545454  0.519886363636364 8.46306818181818  C 0.457386363636364 8.28693181818182  0.375 8.01988636363636  0.272727272727273 7.66193181818182  C 0.170454545454545 7.30397727272727  0.0994318181818182 6.97727272727273  0.0596590909090909 6.68181818181818  C 0.0198863636363636 6.38636363636363  0 6.08522727272727  0 5.77840909090909  C 0 4.73295454545454  0.289772727272727 3.67613636363636  0.869318181818182 2.60795454545455  C 1.50568181818182 1.46022727272727  2.10795454545455 0.767045454545455  2.67613636363636 0.52840909090909  C 2.96022727272727 0.403409090909089  3.34943181818182 0.284090909090907  3.84375 0.170454545454545  C 4.33806818181818 0.0568181818181808  4.73863636363636 0  5.04545454545455 0  C 5.20454545454546 0  5.32386363636364 0.017045454545455  5.40340909090909 0.0511363636363624  C 5.60795454545455 0.119318181818183  5.90909090909091 0.551136363636363  6.30681818181818 1.34659090909091  C 6.43181818181818 1.5625  6.60227272727273 1.86931818181818  6.81818181818182 2.26704545454546  C 7.03409090909091 2.66477272727273  7.23295454545455 3.02556818181818  7.41477272727273 3.34943181818182  C 7.59659090909091 3.67329545454546  7.77272727272727 3.97727272727273  7.94318181818182 4.26136363636364  C 7.97727272727273 4.30681818181818  8.07670454545455 4.44886363636364  8.24147727272727 4.6875  C 8.40625 4.92613636363636  8.52840909090909 5.12784090909091  8.60795454545455 5.29261363636364  C 8.6875 5.45738636363636  8.72727272727273 5.61931818181818  8.72727272727273 5.77840909090909  C 8.72727272727273 6.00568181818182  8.56534090909091 6.28977272727273  8.24147727272727 6.63068181818182  C 7.91761363636364 6.97159090909091  7.56534090909091 7.28409090909091  7.18465909090909 7.56818181818182  C 6.80397727272727 7.85227272727272  6.45170454545455 8.15340909090909  6.12784090909091 8.47159090909091  C 5.80397727272727 8.78977272727273  5.64204545454545 9.05113636363636  5.64204545454545 9.25568181818182  C 5.64204545454545 9.35795454545455  5.67045454545455 9.48579545454546  5.72727272727273 9.63920454545455  C 5.78409090909091 9.79261363636364  5.83238636363636 9.90909090909091  5.87215909090909 9.98863636363636  C 5.91193181818182 10.0681818181818  5.99147727272727 10.2045454545455  6.11079545454546 10.3977272727273  C 6.23011363636364 10.5909090909091  6.29545454545455 10.6988636363636  6.30681818181818 10.7215909090909  C 7.17045454545455 12.2784090909091  8.15909090909091 13.6136363636364  9.27272727272727 14.7272727272727  C 10.3863636363636 15.8409090909091  11.7215909090909 16.8295454545455  13.2784090909091 17.6931818181818  C 13.3011363636364 17.7045454545455  13.4090909090909 17.7698863636364  13.6022727272727 17.8892045454545  C 13.7954545454545 18.0085227272727  13.9318181818182 18.0880681818182  14.0113636363636 18.1278409090909  C 14.0909090909091 18.1676136363636  14.2073863636364 18.2159090909091  14.3607954545455 18.2727272727273  C 14.5142045454545 18.3295454545455  14.6420454545455 18.3579545454545  14.7443181818182 18.3579545454545  C 14.9488636363636 18.3579545454545  15.2102272727273 18.1960227272727  15.5284090909091 17.8721590909091  C 15.8465909090909 17.5482954545455  16.1477272727273 17.1960227272727  16.4318181818182 16.8153409090909  C 16.7159090909091 16.4346590909091  17.0284090909091 16.0823863636364  17.3693181818182 15.7585227272727  C 17.7102272727273 15.4346590909091  17.9943181818182 15.2727272727273  18.2215909090909 15.2727272727273  C 18.3806818181818 15.2727272727273  18.5426136363636 15.3125  18.7073863636364 15.3920454545455  C 18.8721590909091 15.4715909090909  19.0738636363636 15.59375  19.3125 15.7585227272727  C 19.5511363636364 15.9232954545455  19.6931818181818 16.0227272727273  19.7386363636364 16.0568181818182  C 20.0227272727273 16.2272727272727  20.3267045454545 16.4034090909091  20.6505681818182 16.5852272727273  C 20.9744318181818 16.7670454545455  21.3352272727273 16.9659090909091  21.7329545454545 17.1818181818182  C 22.1306818181818 17.3977272727273  22.4375 17.5681818181818  22.6534090909091 17.6931818181818  C 23.4488636363636 18.0909090909091  23.8806818181818 18.3920454545455  23.9488636363636 18.5965909090909  Z " fill-rule="nonzero" fill="#000000" stroke="none" transform="matrix(1 0 0 1 635 346 )" />
  </g>
</svg>