<?xml version="1.0" encoding="utf-8"?>
<svg version="1.1" xmlns:xlink="http://www.w3.org/1999/xlink" width="24px" height="19px" xmlns="http://www.w3.org/2000/svg">
  <g transform="matrix(1 0 0 1 -109 -879 )">
    <path d="M 23.55 14.665  C 22.395 14.65  18.21 13.21  15.18 12.205  C 16.77 9.325  17.34 6.58  17.34 6.58  L 12 6.58  L 12 4.555  L 18.345 4.555  L 18.345 3.685  L 12 3.685  L 12 0.655  L 9.105 0.655  L 9.105 3.685  L 3.33 3.685  L 3.33 4.555  L 9.105 4.555  L 9.105 6.58  L 4.2 6.58  L 4.2 7.45  L 14.16 7.45  C 14.16 7.6  14.16 7.6  14.01 7.735  C 14.01 8.74  13.29 10.18  12.705 11.35  C 5.355 8.455  3.18 10.195  2.61 10.48  C -2.295 13.945  2.325 18.28  3.045 18.13  C 8.235 19.285  11.565 17.125  13.875 14.38  C 14.025 14.53  14.16 14.53  14.31 14.53  C 15.9 15.4  23.55 19  23.55 19  L 23.55 14.665  Z M 11.715 13.06  C 11.565 13.36  11.43 13.495  11.43 13.495  C 7.815 18.115  3.495 16.675  2.775 16.375  C 1.05 15.94  0.465 12.76  2.625 11.755  C 6.24 10.6  9.405 11.905  11.715 13.06  Z " fill-rule="nonzero" fill="#000000" stroke="none" transform="matrix(1 0 0 1 109 879 )" />
  </g>
</svg>