<?xml version="1.0" encoding="utf-8"?>
<svg version="1.1" xmlns:xlink="http://www.w3.org/1999/xlink" width="128px" height="47px" xmlns="http://www.w3.org/2000/svg">
  <g transform="matrix(1 0 0 1 -578 -1269 )">
    <path d="M 22.9964380173208 46  C 10.2959354395571 46.4410362743696  0 36.1722754954955  0 23.5  C 0 10.8294892168359  10.2906273373871 0.558963725630394  22.9964380173208 1  L 104.397848196759 1  C 117.098350774522 0.558963725630394  127.39428621408 10.8277245045045  127.39428621408 23.5  C 127.39428621408 36.1705107831641  117.103658876692 46.4410362743696  104.397848196759 46  L 22.9964380173208 46  Z M 53.3941301829477 7.65303802659802  C 51.4301349408162 7.28245206635206  47.9037902999991 9.89420082177415  47.8347851065659 12.1053637313504  C 47.8347851065659 12.1053637313504  46.4369866954469 19.217084976405  56.9540927742241 29.7311383945851  C 57.0319448345574 29.8087849754516  57.1062581750858 29.8758433719434  57.1788021332491 29.9534899528099  C 57.2531154737775 30.0258424414891  57.3238900495758 30.1034890223557  57.401742109909 30.1776062681729  C 67.9153094688813 40.6881302616903  75.0281570770486 39.2922564288098  75.0281571219739 39.2922564288098  C 75.4616515784394 39.2340215043615  76.3781827034141 38.9746113008246  76.6895909447472 38.6622602650269  C 76.6895909447472 38.6622602650269  78.3085599950863 37.3316801611135  79.2976350782244 35.6940431135898  C 80.2884795437276 34.0546413537347  78.416491286074 31.5875976204776  77.3371785558978 30.5076042480576  C 75.162628878886 28.3334998941799  73.1614769664903 27.9064436770103  72.2785637470496 28.5134987597121  C 71.8822259608483 28.7834971028171  70.3110297851132 30.4811337871204  70.3110297851132 30.4811337871204  C 69.9335839996227 30.8182655991471  69.454113664047 31.0201053040177  68.9486186618934 31.0546596939797  C 68.9486186618934 31.0546596939797  66.1990253318943 31.0828948224415  61.0820214890275 26.0482197387864  C 56.0464084712241 20.935898029458  56.0747182745883 18.1847383888651  56.0747183195135 18.1847383440583  C 56.0800264216835 17.7453292749893  56.3365843488027 17.1312153877687  56.6479925901357 16.8223937318271  C 56.6479925901357 16.8223937318271  58.6013716279274 14.8724056485056  58.6155265520721 14.852994036894  C 59.3586598675055 13.9265291138758  58.1307205011977 11.6236020143953  56.6196827418463 9.79537787215787  C 55.6500706850228 8.62009092997759  54.8662419345951 7.93362455407789  53.3941301829477 7.65303802659802  Z " fill-rule="nonzero" fill="#31d0e6" stroke="none" transform="matrix(1 0 0 1 578 1269 )" />
  </g>
</svg>