<?xml version="1.0" standalone="no"?><!DOCTYPE svg PUBLIC "-//W3C//DTD SVG 1.1//EN" "http://www.w3.org/Graphics/SVG/1.1/DTD/svg11.dtd"><svg t="1655735209715" class="icon" viewBox="0 0 1024 1024" version="1.1" xmlns="http://www.w3.org/2000/svg" p-id="3822" xmlns:xlink="http://www.w3.org/1999/xlink" width="6000" height="6000"><defs><style type="text/css"></style></defs><path d="M422.2 672.2c0 20.6 16.7 37.3 37.3 37.3h105.7c20.6 0 37.3-16.7 37.3-37.3v-68.7h68.7c20.6 0 37.3-16.7 37.3-37.3V460.4c0-20.6-16.7-37.3-37.3-37.3h-68.7v-68.7c0-20.6-16.7-37.3-37.3-37.3H459.5c-20.6 0-37.3 16.7-37.3 37.3v68.7h-68.7c-20.6 0-37.3 16.7-37.3 37.3v105.8c0 20.6 16.7 37.3 37.3 37.3h68.7v68.7z m-68.7-106V460.4h106v-106h105.7v106h106v105.8h-106v106H459.5v-106h-106z" fill="#1296db" p-id="3823"></path><path d="M343.3 783.8C249.5 725 193.4 623.9 193.4 513.3c0-175.9 143.1-319 319-319 43.9 0 86.5 8.8 126.4 26 9.5 4.1 20.4-0.3 24.5-9.7 4.1-9.5-0.3-20.5-9.7-24.5C609 166.8 561.5 157 512.4 157c-196.5 0-356.3 159.8-356.3 356.3 0 123.6 62.6 236.5 167.4 302.2 3.1 1.9 6.5 2.9 9.9 2.9 6.2 0 12.3-3.1 15.8-8.8 5.5-8.8 2.8-20.3-5.9-25.8zM841.9 377.6c-3.9-9.5-14.9-14.1-24.4-10.1-9.5 3.9-14.1 14.8-10.2 24.4 15.9 38.6 24 79.5 24 121.5 0 175.9-143.1 319-319 319-32.7 0-64.9-4.9-95.8-14.6-9.8-3.1-20.3 2.4-23.4 12.2-3.1 9.8 2.4 20.3 12.2 23.4 34.5 10.8 70.5 16.3 107 16.3 196.5 0 356.3-159.8 356.3-356.3 0.1-47.1-8.9-92.7-26.7-135.8zM705.8 259.7c25.7 19.7 48.2 43 67 69.4 3.6 5.1 9.4 7.9 15.2 7.9 3.7 0 7.5-1.1 10.8-3.4 8.4-6 10.4-17.6 4.4-26-20.9-29.5-46-55.6-74.8-77.5-8.2-6.3-19.9-4.7-26.2 3.5-6.1 8.1-4.6 19.8 3.6 26.1z" fill="#1296db" p-id="3824"></path><path d="M512.4 65.3c-247 0-448 201-448 448s201 448 448 448 448-201 448-448-201-448-448-448z m0 840c-216.1 0-392-175.8-392-392s175.8-392 392-392 392 175.8 392 392-175.9 392-392 392z" fill="#1296db" p-id="3825"></path></svg>