<?xml version="1.0" encoding="utf-8"?>
<svg version="1.1" xmlns:xlink="http://www.w3.org/1999/xlink" width="30px" height="30px" xmlns="http://www.w3.org/2000/svg">
  <defs>
    <linearGradient gradientUnits="userSpaceOnUse" x1="15" y1="0" x2="15" y2="30" id="LinearGradient86">
      <stop id="Stop87" stop-color="#f59a23" offset="0" />
      <stop id="Stop88" stop-color="#ed6421" offset="1" />
    </linearGradient>
  </defs>
  <g transform="matrix(1 0 0 1 -1535 -2128 )">
    <path d="M 24.3536931818182 13.828125  C 24.4815340909091 13.9559659090909  24.5454545454545 14.1193181818182  24.5454545454545 14.3181818181818  L 24.5454545454545 15.6818181818182  C 24.5454545454545 15.8806818181818  24.4815340909091 16.0440340909091  24.3536931818182 16.171875  C 24.2258522727273 16.2997159090909  24.0625 16.3636363636364  23.8636363636364 16  L 6.13636363636364 16  C 5.9375 16.3636363636364  5.77414772727273 16.2997159090909  5.64630681818182 16.171875  C 5.51846590909091 16.0440340909091  5.45454545454546 15.8806818181818  5.45454545454546 15.6818181818182  L 5.45454545454546 14.3181818181818  C 5.45454545454546 14.1193181818182  5.51846590909091 13.9559659090909  5.64630681818182 13.828125  C 5.77414772727273 13.7002840909091  5.9375 13.6363636363636  6.13636363636364 14  L 23.8636363636364 14  C 24.0625 13.6363636363636  24.2258522727273 13.7002840909091  24.3536931818182 13.828125  Z M 26.2713068181818 26.2713068181818  C 26.9389204545455 25.6036931818182  27.2727272727273 24.8011363636364  27 23.8636363636364  L 27 6.13636363636364  C 27.2727272727273 5.19886363636364  26.9389204545455 4.39630681818182  26.2713068181818 3.72869318181818  C 25.6036931818182 3.06107954545454  24.8011363636364 2.72727272727273  23.8636363636364 3  L 6.13636363636364 3  C 5.19886363636364 2.72727272727273  4.39630681818182 3.06107954545454  3.72869318181818 3.72869318181818  C 3.06107954545455 4.39630681818182  2.72727272727273 5.19886363636364  3 6.13636363636364  L 3 23.8636363636364  C 2.72727272727273 24.8011363636364  3.06107954545455 25.6036931818182  3.72869318181818 26.2713068181818  C 4.39630681818182 26.9389204545455  5.19886363636364 27.2727272727273  6.13636363636364 27  L 23.8636363636364 27  C 24.8011363636364 27.2727272727273  25.6036931818182 26.9389204545455  26.2713068181818 26.2713068181818  Z M 28.1995738636364 1.80042613636364  C 29.3998579545455 3.00071022727273  30 4.44602272727272  30 6.13636363636364  L 30 23.8636363636364  C 30 25.5539772727273  29.3998579545455 26.9992897727273  28.1995738636364 28.1995738636364  C 26.9992897727273 29.3998579545455  25.5539772727273 30  23.8636363636364 30  L 6.13636363636364 30  C 4.44602272727273 30  3.00071022727273 29.3998579545455  1.80042613636364 28.1995738636364  C 0.600142045454545 26.9992897727273  0 25.5539772727273  0 23.8636363636364  L 0 6.13636363636364  C 0 4.44602272727272  0.600142045454545 3.00071022727273  1.80042613636364 1.80042613636364  C 3.00071022727273 0.600142045454543  4.44602272727273 0  6.13636363636364 0  L 23.8636363636364 0  C 25.5539772727273 0  26.9992897727273 0.600142045454543  28.1995738636364 1.80042613636364  Z " fill-rule="nonzero" fill="url(#LinearGradient86)" stroke="none" transform="matrix(1 0 0 1 1535 2128 )" />
  </g>
</svg>