<?xml version="1.0" encoding="utf-8"?>
<svg version="1.1" xmlns:xlink="http://www.w3.org/1999/xlink" width="38px" height="38px" xmlns="http://www.w3.org/2000/svg">
  <g transform="matrix(1 0 0 1 -58 -535 )">
    <path d="M 19 36.9038461538462  C 9.11197880591406 36.9038461538462  1.09615384615384 28.8880211940859  1.09615384615384 19  C 1.09615384615384 9.11197880591406  9.11197880591406 1.09615384615384  19 1.09615384615384  C 28.8880211940859 1.09615384615384  36.9038461538462 9.11197880591406  36.9038461538462 19  C 36.9038461538462 28.8880211940859  28.8880211940859 36.9038461538462  19 36.9038461538462  Z M 18.9999997713245 3.65384615384615  C 10.5245530335365 3.65384615384615  3.65384592517064 10.5245532622121  3.65384592517064 19  C 3.65384592517064 27.4754467377879  10.5245530335365 34.3461538461538  18.9999997713245 34.3461538461538  C 27.4754465091124 34.3461538461538  34.3461536174783 27.4754467377879  34.3461536174783 19  C 34.3461536174783 10.5245532622121  27.4754465091124 3.65384615384615  18.9999997713245 3.65384615384615  Z M 25.2868076923077 13.8206730769231  C 25.2868076923077 16.17375  24.0719038461538 17.8388076923077  22.1536346153846 18.9923269230769  C 20.2507115384615 20.1151538461538  19.7110384615385 20.9540769230769  19.7110384615385 22.5296153846154  L 19.7110384615385 23.5015384615385  L 17.0894038461538 23.5015384615385  L 17.0894038461538 22.1229423076923  C 17.0740576923077 20.1458461538462  18.0331923076923 18.7979423076923  20.0844615384615 17.5676923076923  C 21.8236923076923 16.5036923076923  22.4989230769231 15.5599038461538  22.4989230769231 13.9562307692308  C 22.4989230769231 12.0967884615385  21.0589423076923 10.7335384615385  18.8260769230769 10.7335384615385  C 16.5650769230769 10.7335384615385  15.1250961538461 12.0686538461538  14.9614038461538 14.212  L 12.3985961538462 14.212  C 12.5622884615385 10.9739615384615  14.7209807692308 8.3958076923077  18.9309423076923 8.3958076923077  C 22.7086538461538 8.3958076923077  25.2868076923077 10.7335384615385  25.2868076923077 13.8206730769231  Z M 16.6980769230769 28.6271538461538  C 16.6980769230769 27.6526730769231  17.4474807692308 26.9186153846154  18.4066153846154 26.9186153846154  C 19.3810961538462 26.9186153846154  20.1151538461538 27.6526730769231  20.1151538461539 28.6271538461539  C 20.1153135572646 28.636611065461  20.1153934170896 28.6460694646828  20.1153934170896 28.6555280324742  C 20.1153934170896 29.5835894502619  19.3630509887235 30.335931878628  18.4349895709357 30.335931878628  C 18.4255310031443 30.335931878628  18.4160726039226 30.3358520188031  18.4066153846154 30.3356923076923  C 18.399753343982 30.3357760004887  18.3928908567857 30.335817848054  18.3860283057922 30.335817848054  C 17.4537291646355 30.335817848054  16.6979513827153 29.5800400661337  16.6979513827153 28.647740924977  C 16.6979513827153 28.6408783739836  16.6979932302805 28.6340158867871  16.6980769230769 28.6271538461538  Z " fill-rule="nonzero" fill="#000000" stroke="none" transform="matrix(1 0 0 1 58 535 )" />
  </g>
</svg>