<?xml version="1.0" encoding="utf-8"?>
<svg version="1.1" xmlns:xlink="http://www.w3.org/1999/xlink" width="38px" height="38px" xmlns="http://www.w3.org/2000/svg">
  <g transform="matrix(1 0 0 1 -58 -637 )">
    <path d="M 37.8734040178571 35.0602946604331  C 37.8734040178571 36.6609651820866  36.9317589285714 37.9585076279528  35.7701294642857 38  L 2.11765178571428 38  C 0.956022321428569 37.9585076279528  0.0143772321428554 36.6610236220472  0.0143772321428554 35.0603531003937  L 0.0143772321428554 26.3655973179134  C 0.0145892857142836 25.5653789370079  0.485348214285713 24.916812253937  1.06599330357143 24.9164616141732  C 1.06599330357143 24.847969980315  1.04436383928571 24.789530019685  1.03774776785714 24.7236681840551  C 2.86344419642857 24.0911140501969  4.22096875 21.8323511318898  4.22096875 19.1203863188976  C 4.22096875 16.407720226378  2.86348660714285 14.149249507874  1.03774776785714 13.5166953740157  C 1.04440625 13.4508335383858  1.06599330357143 13.3920429379921  1.06599330357143 13.323843503937  C 0.485305803571427 13.323843503937  0.0143772321428547 12.6750430610236  0.0143772321428547 11.8747662401575  L 0.0143772321428547 3.17971825787402  C 0.0143772321428547 1.57904773622047  0.955979910714283 0.281797490157481  2.11765178571428 1  L 35.7701294642857 1  C 36.9317589285714 0.281797490157481  37.8734040178571 1.57898929625984  37.8734040178571 3.17971825787402  L 37.8734040178571 11.8746493602362  C 37.8734040178571 12.674984621063  37.4027299107143 13.323843503937  36.8217879464286 13.323843503937  C 36.8217879464286 13.3920429379921  36.8434174107143 13.4507750984252  36.8502455357143 13.5166369340551  C 35.0243370535714 14.1491910679134  33.6668125 16.4080124261811  33.6668125 19.120327878937  C 33.6668125 21.8322342519685  35.0242946428571 24.0910556102362  36.8500334821429 24.7236097440945  C 36.8434174107143 24.7894715797244  36.8217879464286 24.847969980315  36.8217879464286 24.9164616141732  C 37.4025178571429 24.9164616141732  37.8731495535714 25.5653789370079  37.8734040178571 26.3655388779528  L 37.8734040178571 35.0602946604331  Z M 35.7701294642857 33.6114511564961  L 35.7701294642857 27.3096364419291  C 33.3210803571429 26.1145976870079  31.5634955357143 22.9040815698819  31.5634955357143 19.1203863188976  C 31.5634955357143 15.336281988189  33.3210379464286 12.1257074311024  35.7701294642857 10.9306102362205  L 35.7701294642857 4.62885396161417  C 35.7701294642857 3.82863558070866  35.2991584821429 3.17977669783464  34.7184709821429 3.17977669783464  L 3.16926785714286 3.17977669783464  C 2.58853794642857 3.17977669783464  2.11765178571429 3.82863558070866  2.11765178571429 4.62885396161417  L 2.11765178571429 10.9306102362205  C 4.56665848214286 12.1256489911417  6.32424330357143 15.3361651082677  6.32424330357143 19.120327878937  C 6.32424330357143 22.9040231299213  4.56674330357143 26.1145976870079  2.11765178571429 27.3095780019685  L 2.11765178571429 33.6114511564961  C 2.11765178571429 34.4116695374016  2.58853794642857 35.0602946604331  3.16926785714286 35  L 34.7184709821429 35  C 35.2992008928571 35.0602946604331  35.7701294642857 34.4116110974409  35.7701294642857 33.6114511564961  Z M 23.6762053571429 24.9165200541339  L 19.9955915178571 24.9165200541339  L 19.9955915178571 28.5395054133858  C 19.9955915178571 28.939468503937  19.760296875 29.2638102854331  19.4698258928571 29.2638102854331  L 18.418125 29.2638102854331  C 18.1276116071429 29.2638102854331  17.8922745535714 28.939468503937  17.8922745535714 28.5395054133858  L 17.8922745535714 24.9164616141732  L 14.2114486607143 24.9164616141732  C 13.9210200892857 24.9164616141732  13.6856830357143 24.5924704724409  13.6856830357143 24.1922151820866  L 13.6856830357143 22.7427872785433  C 13.6856830357143 22.3428241879921  13.9210200892857 22.0185408464567  14.2114910714286 22.0185408464567  L 17.8923169642857 22.0185408464567  L 17.8923169642857 19.1203863188976  L 14.2114910714286 19.1203863188976  C 13.9209776785714 19.1203863188976  13.6856830357143 18.7957523375984  13.6856830357143 18.3957892470472  L 13.6856830357143 16.9466535433071  C 13.6856830357143 16.5463982529528  13.9210200892857 16.2218227116142  14.2114910714286 16.2218227116142  L 17.1094575892857 16.2218227116142  L 13.8705089285714 11.3404496801181  C 13.6856830357143 11.0619248277559  13.6856830357143 10.6104176919291  13.8705089285714 10.3319512795276  L 14.53975 9.3228684793307  C 14.72440625 9.04469426673228  15.0239955357143 9.04469426673228  15.2091183035714 9.3228684793307  L 18.9160267857143 14.9099624753937  L 22.6666607142857 9.25735728346456  C 22.8529709821429 8.97626107283464  23.1548928571429 8.97626107283464  23.341203125 9.25735728346456  L 24.015703125 10.2735697588583  C 24.2021830357143 10.5546659694882  24.2021830357143 11.0098548228346  24.015703125 11.2906588336614  L 20.7437165178571 16.2218811515748  L 23.6762053571429 16.2218811515748  C 23.9668883928571 16.2218811515748  24.2020133928571 16.546515132874  24.2020133928571 16.9467119832677  L 24.2020133928571 18.3957308070866  C 24.2020133928571 18.7956938976378  23.9668883928571 19.120327878937  23.6762053571429 19.120327878937  L 19.9955915178571 19.120327878937  L 19.9955915178571 22.0184824064961  L 23.6762053571429 22.0184824064961  C 23.9668883928571 22.0184824064961  24.2020133928571 22.3428241879921  24.2020133928571 22.7427288385827  L 24.2020133928571 24.192156742126  C 24.2019709821429 24.592470472441  23.9666339285714 24.9164616141732  23.6761205357143 24.9164616141732  Z " fill-rule="nonzero" fill="#000000" stroke="none" transform="matrix(1 0 0 1 58 637 )" />
  </g>
</svg>