<?xml version="1.0" encoding="utf-8"?>
<svg version="1.1" xmlns:xlink="http://www.w3.org/1999/xlink" width="142px" height="142px" xmlns="http://www.w3.org/2000/svg">
  <g transform="matrix(1 0 0 1 -2315 -199 )">
    <path d="M 117.0390625 60.18359375  C 118.1484375 59.07421875  118.703125 57.6875  118.703125 56.0234375  C 118.703125 54.2977430555556  118.1484375 52.8802083333333  117.0390625 51.7708333333333  L 108.626302083333 43.4505208333333  C 107.455295138889 42.2795138888889  106.068576388889 41.6940104166667  104.466145833333 41.6940104166667  C 102.863715277778 41.6940104166667  101.476996527778 42.2795138888889  100.305989583333 43.4505208333333  L 62.5872395833333 81.0768229166667  L 41.6940104166667 60.18359375  C 40.5230034722222 59.0125868055556  39.1362847222222 58.4270833333333  37.5338541666667 58.4270833333333  C 35.9314236111111 58.4270833333333  34.5447048611111 59.0125868055556  33.3736979166667 60.18359375  L 24.9609375 68.50390625  C 23.8515625 69.61328125  23.296875 71.0308159722222  23.296875 72.7565104166667  C 23.296875 74.4205729166667  23.8515625 75.8072916666667  24.9609375 76.9166666666667  L 58.4270833333333 110.3828125  C 59.5980902777778 111.553819444444  60.9848090277778 112.139322916667  62.5872395833333 112.139322916667  C 64.2513020833333 112.139322916667  65.6688368055556 111.553819444444  66.83984375 110.3828125  L 117.0390625 60.18359375  Z M 132.477864583333 35.361328125  C 138.825954861111 46.2393663194444  142 58.1189236111111  142 71  C 142 83.8810763888889  138.825954861111 95.7606336805555  132.477864583333 106.638671875  C 126.129774305556 117.516710069444  117.516710069444 126.129774305556  106.638671875 132.477864583333  C 95.7606336805556 138.825954861111  83.8810763888889 142  71 142  C 58.1189236111111 142  46.2393663194444 138.825954861111  35.361328125 132.477864583333  C 24.4832899305556 126.129774305556  15.8702256944444 117.516710069444  9.52213541666667 106.638671875  C 3.17404513888889 95.7606336805555  0 83.8810763888889  0 71  C 0 58.1189236111111  3.17404513888889 46.2393663194444  9.52213541666667 35.361328125  C 15.8702256944444 24.4832899305556  24.4832899305556 15.8702256944444  35.361328125 9.52213541666666  C 46.2393663194444 3.17404513888888  58.1189236111111 0  71 0  C 83.8810763888889 0  95.7606336805556 3.17404513888888  106.638671875 9.52213541666666  C 117.516710069444 15.8702256944444  126.129774305556 24.4832899305556  132.477864583333 35.361328125  Z " fill-rule="nonzero" fill="#f59a23" stroke="none" transform="matrix(1 0 0 1 2315 199 )" />
  </g>
</svg>