<?xml version="1.0" encoding="utf-8"?>
<svg version="1.1" xmlns:xlink="http://www.w3.org/1999/xlink" width="40px" height="40px" xmlns="http://www.w3.org/2000/svg">
  <g transform="matrix(1 0 0 1 -1805 -463 )">
    <path d="M 30.9895833333333 16.6666666666667  C 30.9895833333333 17.1180555555556  30.8246527777778 17.5086805555556  30.4947916666667 17.8385416666667  L 19.5052083333333 28.828125  C 19.1753472222222 29.1579861111111  18.7847222222222 29.3229166666667  18.3333333333333 29.3229166666667  C 17.8819444444444 29.3229166666667  17.4913194444444 29.1579861111111  17.1614583333333 28.828125  L 9.50520833333333 21.171875  C 9.17534722222222 20.8420138888889  9.01041666666667 20.4513888888889  9.01041666666667 20  C 9.01041666666667 19.5486111111111  9.17534722222222 19.1579861111111  9.50520833333333 18.828125  L 12.1614583333333 16.171875  C 12.4913194444444 15.8420138888889  12.8819444444444 15.6770833333333  13.3333333333333 15.6770833333333  C 13.7847222222222 15.6770833333333  14.1753472222222 15.8420138888889  14.5052083333333 16.171875  L 18.3333333333333 20  L 25.4947916666667 12.8385416666667  C 25.8246527777778 12.5086805555556  26.2152777777778 12.34375  26.6666666666667 12.34375  C 27.1180555555556 12.34375  27.5086805555556 12.5086805555556  27.8385416666667 12.8385416666667  L 30.4947916666667 15.4947916666667  C 30.8246527777778 15.8246527777778  30.9895833333333 16.2152777777778  30.9895833333333 16.6666666666667  Z M 32.265625 27.109375  C 33.5329861111111 24.9392361111111  34.1666666666667 22.5694444444444  34.1666666666667 20  C 34.1666666666667 17.4305555555556  33.5329861111111 15.0607638888889  32.265625 12.890625  C 30.9982638888889 10.7204861111111  29.2795138888889 9.00173611111111  27.109375 7.734375  C 24.9392361111111 6.46701388888889  22.5694444444444 5.83333333333333  20 5.83333333333333  C 17.4305555555556 5.83333333333333  15.0607638888889 6.46701388888889  12.890625 7.734375  C 10.7204861111111 9.00173611111111  9.00173611111111 10.7204861111111  7.734375 12.890625  C 6.46701388888889 15.0607638888889  5.83333333333333 17.4305555555556  5.83333333333333 20  C 5.83333333333333 22.5694444444444  6.46701388888889 24.9392361111111  7.734375 27.109375  C 9.00173611111111 29.2795138888889  10.7204861111111 30.9982638888889  12.890625 32.265625  C 15.0607638888889 33.5329861111111  17.4305555555556 34.1666666666667  20 34.1666666666667  C 22.5694444444444 34.1666666666667  24.9392361111111 33.5329861111111  27.109375 32.265625  C 29.2795138888889 30.9982638888889  30.9982638888889 29.2795138888889  32.265625 27.109375  Z M 37.3177083333333 9.9609375  C 39.1059027777778 13.0251736111111  40 16.3715277777778  40 20  C 40 23.6284722222222  39.1059027777778 26.9748263888889  37.3177083333333 30.0390625  C 35.5295138888889 33.1032986111111  33.1032986111111 35.5295138888889  30.0390625 37.3177083333333  C 26.9748263888889 39.1059027777778  23.6284722222222 40  20 40  C 16.3715277777778 40  13.0251736111111 39.1059027777778  9.9609375 37.3177083333333  C 6.89670138888889 35.5295138888889  4.47048611111111 33.1032986111111  2.68229166666667 30.0390625  C 0.894097222222222 26.9748263888889  0 23.6284722222222  0 20  C 0 16.3715277777778  0.894097222222222 13.0251736111111  2.68229166666667 9.9609375  C 4.47048611111111 6.89670138888889  6.89670138888889 4.47048611111111  9.9609375 2.68229166666667  C 13.0251736111111 0.894097222222219  16.3715277777778 0  20 0  C 23.6284722222222 0  26.9748263888889 0.894097222222219  30.0390625 2.68229166666667  C 33.1032986111111 4.47048611111111  35.5295138888889 6.89670138888889  37.3177083333333 9.9609375  Z " fill-rule="nonzero" fill="#ff8d3d" stroke="none" transform="matrix(1 0 0 1 1805 463 )" />
  </g>
</svg>