<?xml version="1.0" encoding="utf-8"?>
<svg version="1.1" xmlns:xlink="http://www.w3.org/1999/xlink" width="20px" height="28px" xmlns="http://www.w3.org/2000/svg">
  <g transform="matrix(1 0 0 1 -3536 -560 )">
    <path d="M 13.53515625 12.6328125  C 14.51171875 11.7213541666667  15 10.6215277777778  15 9.33333333333333  C 15 8.04513888888889  14.51171875 6.9453125  13.53515625 6.03385416666667  C 12.55859375 5.12239583333333  11.3802083333333 4.66666666666667  10 4.66666666666667  C 8.61979166666667 4.66666666666667  7.44140625 5.12239583333333  6.46484375 6.03385416666667  C 5.48828125 6.9453125  5 8.04513888888889  5 9.33333333333333  C 5 10.6215277777778  5.48828125 11.7213541666667  6.46484375 12.6328125  C 7.44140625 13.5442708333333  8.61979166666667 14  10 14  C 11.3802083333333 14  12.55859375 13.5442708333333  13.53515625 12.6328125  Z M 17.0703125 2.734375  C 19.0234375 4.55729166666667  20 6.75694444444444  20 9.33333333333333  C 20 10.6579861111111  19.78515625 11.7456597222222  19.35546875 12.5963541666667  L 12.24609375 26.7057291666667  C 12.0377604166667 27.1067708333333  11.728515625 27.4227430555556  11.318359375 27.6536458333333  C 10.908203125 27.8845486111111  10.46875 28  10 28  C 9.53125 28  9.091796875 27.8845486111111  8.681640625 27.6536458333333  C 8.271484375 27.4227430555556  7.96875 27.1067708333333  7.7734375 26.7057291666667  L 0.64453125 12.5963541666667  C 0.21484375 11.7456597222222  0 10.6579861111111  0 9.33333333333333  C 0 6.75694444444444  0.9765625 4.55729166666667  2.9296875 2.734375  C 4.8828125 0.911458333333334  7.23958333333333 0  10 0  C 12.7604166666667 0  15.1171875 0.911458333333334  17.0703125 2.734375  Z " fill-rule="nonzero" fill="#000000" stroke="none" transform="matrix(1 0 0 1 3536 560 )" />
  </g>
</svg>