<?xml version="1.0" encoding="utf-8"?>
<svg version="1.1" xmlns:xlink="http://www.w3.org/1999/xlink" width="50px" height="48px" xmlns="http://www.w3.org/2000/svg">
  <g transform="matrix(1 0 0 1 -211 -972 )">
    <path d="M 26.2499999794922 13  L 11.2499999912109 13  L 11.2499999912109 11  L 26.2499999794922 11  L 26.2499999794922 13  Z M 26.2499999794922 21  L 11.2499999912109 21  L 11.2499999912109 18  L 26.2499999794922 18  L 26.2499999794922 21  Z M 26.2499999794922 27  L 11.2499999912109 27  L 11.2499999912109 25  L 26.2499999794922 25  L 26.2499999794922 27  Z M 26.2499999794922 35  L 11.2499999912109 35  L 11.2499999912109 32  L 26.2499999794922 32  L 26.2499999794922 35  Z M 50 45.2500000195313  L 47 45.2500000195313  L 47 16.5  C 47.4999999824219 15.8096440734983  46.940355928892 15.2500000195312  46.2500000029297 15.2500000195312  L 38.7500000087891 15.2500000195312  C 38.059644024233 15.2500000195312  37.4999999707031 15.8096440734983  37.4999999707031 16.5  C 37.4999999707031 16.5  37.4999999707031 16.5  37 16.5  L 37 45.2500000195313  L 35 45.2500000195313  L 35 2.75374998046875  C 35.000006170221 1.37389069490804  33.8836030878399 0.254133397275303  32.5037499941377 1  L 4.99625003515918 1  C 3.61700283984858 0.252067338701635  2.49999720095052 1.3707484850705  2.49999720095052 2.7499972307843  C 2.49999720095052 2.75124814787428  2.49999813982666 2.75249906478811  3 2.75374998046875  L 3 45.2500000195313  L 0 45.2500000195313  L 0 47  L 50 47  L 50 45.2500000195313  Z " fill-rule="nonzero" fill="#ffffff" stroke="none" transform="matrix(1 0 0 1 211 972 )" />
  </g>
</svg>