<?xml version="1.0" encoding="utf-8"?>
<svg version="1.1" xmlns:xlink="http://www.w3.org/1999/xlink" width="15px" height="20px" xmlns="http://www.w3.org/2000/svg">
  <g transform="matrix(1 0 0 1 -3459 -643 )">
    <path d="M 14.7422680412371 9.53907815631263  C 14.914089347079 9.67267869071476  15 9.82631930527722  15 10  C 15 10.1736806947228  14.914089347079 10.3273213092852  14.7422680412371 10.4609218436874  L 2.7319587628866 19.7995991983968  C 2.56013745704467 19.9331997327989  2.36254295532646 20  2.13917525773196 20  C 1.91580756013746 20  1.71821305841924 19.9331997327989  1.54639175257732 19.7995991983968  L 0.257731958762887 18.7975951903808  C 0.0859106529209623 18.6639946559786  0 18.5103540414162  0 18.3366733466934  C 0 18.1629926519706  0.0859106529209623 18.0093520374081  0.257731958762887 17.875751503006  L 10.3865979381443 10  L 0.257731958762887 2.12424849699399  C 0.0859106529209623 1.99064796259185  0 1.83700734802939  0 1.66332665330661  C 0 1.48964595858383  0.0859106529209623 1.33600534402137  0.257731958762887 1.20240480961924  L 1.54639175257732 0.200400801603207  C 1.71821305841924 0.0668002672010681  1.91580756013746 0  2.13917525773196 0  C 2.36254295532646 0  2.56013745704467 0.0668002672010681  2.7319587628866 0.200400801603207  L 14.7422680412371 9.53907815631263  Z " fill-rule="nonzero" fill="#555555" stroke="none" transform="matrix(1 0 0 1 3459 643 )" />
  </g>
</svg>