<?xml version="1.0" encoding="utf-8"?>
<svg version="1.1" xmlns:xlink="http://www.w3.org/1999/xlink" width="32px" height="32px" xmlns="http://www.w3.org/2000/svg">
  <defs>
    <linearGradient gradientUnits="userSpaceOnUse" x1="16" y1="0" x2="16" y2="32" id="LinearGradient94">
      <stop id="Stop95" stop-color="#f59a23" offset="0" />
      <stop id="Stop96" stop-color="#ed6421" offset="1" />
    </linearGradient>
  </defs>
  <g transform="matrix(1 0 0 1 -382 -663 )">
    <path d="M 26.2708333333333 18.2708333333333  C 26.5347222222222 18.0069444444444  26.6666666666667 17.6944444444444  26.6666666666667 17.3333333333333  L 26.6666666666667 14.6666666666667  C 26.6666666666667 14.3055555555556  26.5347222222222 13.9930555555556  26.2708333333333 13.7291666666667  C 26.0069444444444 13.4652777777778  25.6944444444444 13.3333333333333  25.3333333333333 13.3333333333333  L 18.6666666666667 13.3333333333333  L 18.6666666666667 6.66666666666667  C 18.6666666666667 6.30555555555555  18.5347222222222 5.99305555555555  18.2708333333333 5.72916666666667  C 18.0069444444444 5.46527777777778  17.6944444444444 5.33333333333333  17.3333333333333 5.33333333333333  L 14.6666666666667 5.33333333333333  C 14.3055555555556 5.33333333333333  13.9930555555556 5.46527777777778  13.7291666666667 5.72916666666667  C 13.4652777777778 5.99305555555555  13.3333333333333 6.30555555555555  13.3333333333333 6.66666666666667  L 13.3333333333333 13.3333333333333  L 6.66666666666667 13.3333333333333  C 6.30555555555556 13.3333333333333  5.99305555555556 13.4652777777778  5.72916666666667 13.7291666666667  C 5.46527777777778 13.9930555555556  5.33333333333333 14.3055555555556  5.33333333333333 14.6666666666667  L 5.33333333333333 17.3333333333333  C 5.33333333333333 17.6944444444444  5.46527777777778 18.0069444444444  5.72916666666667 18.2708333333333  C 5.99305555555556 18.5347222222222  6.30555555555556 18.6666666666667  6.66666666666667 18.6666666666667  L 13.3333333333333 18.6666666666667  L 13.3333333333333 25.3333333333333  C 13.3333333333333 25.6944444444444  13.4652777777778 26.0069444444444  13.7291666666667 26.2708333333333  C 13.9930555555556 26.5347222222222  14.3055555555556 26.6666666666667  14.6666666666667 26.6666666666667  L 17.3333333333333 26.6666666666667  C 17.6944444444444 26.6666666666667  18.0069444444444 26.5347222222222  18.2708333333333 26.2708333333333  C 18.5347222222222 26.0069444444444  18.6666666666667 25.6944444444444  18.6666666666667 25.3333333333333  L 18.6666666666667 18.6666666666667  L 25.3333333333333 18.6666666666667  C 25.6944444444444 18.6666666666667  26.0069444444444 18.5347222222222  26.2708333333333 18.2708333333333  Z M 30.2395833333333 1.76041666666667  C 31.4131944444444 2.93402777777778  32 4.34722222222222  32 6  L 32 26  C 32 27.6527777777778  31.4131944444444 29.0659722222222  30.2395833333333 30.2395833333333  C 29.0659722222222 31.4131944444444  27.6527777777778 32  26 32  L 6 32  C 4.34722222222222 32  2.93402777777778 31.4131944444444  1.76041666666667 30.2395833333333  C 0.586805555555555 29.0659722222222  0 27.6527777777778  0 26  L 0 6  C 0 4.34722222222222  0.586805555555555 2.93402777777778  1.76041666666667 1.76041666666667  C 2.93402777777778 0.586805555555554  4.34722222222222 0  6 0  L 26 0  C 27.6527777777778 0  29.0659722222222 0.586805555555554  30.2395833333333 1.76041666666667  Z " fill-rule="nonzero" fill="url(#LinearGradient94)" stroke="none" transform="matrix(1 0 0 1 382 663 )" />
  </g>
</svg>