<?xml version="1.0" encoding="utf-8"?>
<svg version="1.1" xmlns:xlink="http://www.w3.org/1999/xlink" width="61px" height="54px" xmlns="http://www.w3.org/2000/svg">
  <g transform="matrix(1 0 0 1 -103 -3096 )">
    <path d="M 18.7790643167773 42.6081151750973  C 19.4474534218357 42.3319937743191  20.1748180361639 42.19393307393  20.961158159762 42.19393307393  C 21.7081812771801 42.19393307393  22.4158873884184 42.3319937743191  23.0842764934768 42.6081151750973  C 23.7526655985351 42.8842365758755  24.3325914396887 43.2688342412451  24.8240540169375 43.7619081712062  C 25.3155165941863 44.2549821011673  25.7086866559854 44.8368093385214  26.0035642023346 45.5073898832685  C 26.2984417486839 46.1779704280156  26.4458805218585 46.8879968871595  26.4458805218585 47.6374692607004  C 26.4458805218585 48.3869416342412  26.2984417486839 49.0969680933852  26.0035642023346 49.7675486381323  C 25.7086866559854 50.4381291828794  25.3155165941863 51.0199564202335  24.8240540169375 51.5130303501945  C 24.3325914396887 52.0061042801556  23.7526655985351 52.4005634241245  23.0842764934768 52.6964077821012  C 22.4158873884184 52.9922521400778  21.7081812771801 53.1401743190661  20.961158159762 53.1401743190661  C 20.1748180361639 53.1401743190661  19.4474534218357 52.9922521400778  18.7790643167773 52.6964077821012  C 18.1106752117189 52.4005634241245  17.5307493705653 52.0061042801556  17.0392867933165 51.5130303501945  C 16.5478242160678 51.0199564202335  16.1546541542687 50.4381291828794  15.8597766079194 49.7675486381323  C 15.5648990615702 49.0969680933852  15.4174602883955 48.3869416342412  15.4174602883955 47.6374692607004  C 15.4174602883955 46.8879968871595  15.5648990615702 46.1779704280156  15.8597766079194 45.5073898832685  C 16.1546541542687 44.8368093385214  16.5478242160678 44.2549821011673  17.0392867933165 43.7619081712062  C 17.5307493705653 43.2688342412451  18.1106752117189 42.8842365758755  18.7790643167773 42.6081151750973  Z M 43.3718516823072 42.7264529182879  C 44.0402407873655 42.4503315175097  44.7479468986038 42.3122708171206  45.494970016022 42.3122708171206  C 46.2419931334401 42.3122708171206  46.9595284962234 42.4503315175097  47.6475761043717 42.7264529182879  C 48.33562371252 43.0025743190661  48.9253788052186 43.3871719844358  49.4168413824674 43.8802459143969  C 49.9083039597162 44.373319844358  50.3014740215152 44.9551470817121  50.5963515678645 45.6257276264591  C 50.8912291142138 46.2963081712062  51.0386678873884 47.0063346303502  51.0386678873884 47.755807003891  C 51.0386678873884 48.5052793774319  50.8912291142138 49.2153058365759  50.5963515678645 49.885886381323  C 50.3014740215152 50.55646692607  49.9083039597162 51.1382941634241  49.4168413824674 51.6313680933852  C 48.9253788052186 52.1244420233463  48.33562371252 52.5189011673152  47.6475761043717 52.8147455252918  C 46.9595284962234 53.1105898832685  46.2419931334401 53.2585120622568  45.494970016022 53.2585120622568  C 44.7479468986038 53.2585120622568  44.0402407873655 53.1105898832685  43.3718516823072 52.8147455252918  C 42.7034625772488 52.5189011673152  42.1235367360952 52.1244420233463  41.6320741588464 51.6313680933852  C 41.1406115815976 51.1382941634241  40.7474415197986 50.55646692607  40.4525639734493 49.885886381323  C 40.1576864271 49.2153058365759  40.0102476539254 48.5052793774319  40.0102476539254 47.755807003891  C 40.0102476539254 47.0063346303502  40.1576864271 46.2963081712062  40.4525639734493 45.6257276264591  C 40.7474415197986 44.9551470817121  41.1406115815976 44.373319844358  41.6320741588464 43.8802459143969  C 42.1235367360952 43.3871719844358  42.7034625772488 43.0025743190661  43.3718516823072 42.7264529182879  Z M 15.0636072327764 9  L 55.4028555733577 9  C 56.5037317463951 8.70435175097276  57.358876630808 8.85227392996109  57.9682902265965 9.14811828793775  C 58.577703822385 9.4439626459144  59.0101908903639 9.80883735408561  59.2657514305333 10.2427424124514  C 59.5213119707027 10.6766474708171  59.6392629892424 11.1401369649805  59.6196044861524 11.6332108949416  C 59.5999459830625 12.1262848249027  59.5311412222477 12.5503284046693  59.4131902037079 12.9053416342412  C 59.2952391851682 13.2603548638132  59.0396786449989 13.9901042801556  58.6465085831998 15.0945898832685  C 58.2533385214008 16.1990754863813  57.8306807049668 17.4120373540856  57.3785351338979 18.7334754863813  C 56.926389562829 20.054913618677  56.4742439917601 21.3664902723735  56.0220984206912 22.6682054474708  C 55.5699528496223 23.9699206225681  55.2062705424582 24.9955143968872  54.9310514991989 25.744986770428  C 54.4199304188602 27.3228233463035  53.7810290684367 28.4174474708171  53.0143474479286 29.0288591439689  C 52.2476658274205 29.6402708171206  51.2942284275578 29.9459766536965  50.1540352483406 29.9459766536965  L 48.0898924238956 29.9459766536965  L 44.3154598306249 29.9459766536965  L 39.361517051957 29.9459766536965  L 33.8178191805905 30  L 19.1918928816663 30  L 20.0175500114443 35  L 49.8001821927215 35  C 51.6873984893568 35.2711750972763  52.6310066376745 36.0798163424125  52.6310066376745 37.6970988326848  C 52.6310066376745 38.4860171206226  52.44425085832 39.1763206225681  52.0707392996109 39.7680093385214  C 51.6972277409018 40.3596980544747  50.9600338750286 40.6358194552529  49.8591577019913 40.596373540856  L 47.0283332570382 40.596373540856  L 41.6025864042115 40.596373540856  L 34.7614273289082 40.596373540856  L 27.8612927443351 40.596373540856  L 22.1406683451591 40.596373540856  L 18.9559908445869 40.596373540856  C 18.1696507209888 40.596373540856  17.5110908674754 40.41886692607  16.9803112840467 40.0638536964981  C 16.449531700618 39.7088404669261  16.0072153810941 39.2453509727626  15.653362325475 38.6733852140078  C 15.2995092698558 38.1014194552529  15.0144609750515 37.480146303502  14.798217441062 36.8095657587549  C 14.5819739070726 36.1389852140078  14.414876630808 35.5078505836576  14.2969256122683 34.9161618677043  C 14.2576086060884 34.679486381323  14.1494868390936 34.1075206225681  13.9725603112841 33.2002645914397  C 13.7956337834745 32.2930085603113  13.579390249485 31.1589385214008  13.3238297093156 29.7980544747082  C 13.0682691691463 28.4371704280156  12.783220874342 26.9185027237354  12.4686848249027 25.2420513618677  C 12.1541487754635 23.5656  11.8396127260243 21.8792871595331  11.525076676585 20.1831128404669  C 10.7780535591669 16.1990754863813  9.93273792629894 11.7614101167315  8.98912977798125 6.87011673151751  L 4.56596658274206 6.87011673151751  C 3.9762114900435 6.87011673151751  3.48474891279471 6.72219455252918  3.09157885099567 6.42635019455253  C 2.69840878919663 6.13050583657588  2.37404348821242 5.77549260700389  2.11848294804305 5.36131050583658  C 1.86292240787367 4.94712840466926  1.6859958800641 4.50336186770428  1.58770336461434 4.03001089494164  C 1.48941084916458 3.55665992217899  1.4402645914397 3.12275486381323  1.4402645914397 2.72829571984436  C 1.4402645914397 1.93937743190662  1.70565438315406 1.28851984435798  2.23643396658276 0.775722957198445  C 2.76721355001146 0.262926070038912  3.48474891279471 0.0262505836575896  4.38904005493249 0.0656964980544764  L 10.3455664911879 0.0656964980544764  C 11.131906614786 0.0656964980544764  11.7609787136645 0.184034241245138  12.2327827878233 0.420709727626461  C 12.7045868619822 0.657385214007784  13.0780984206912 0.953229571984438  13.3533174639506 1.30824280155642  C 13.6285365072099 1.66325603112841  13.8251215381094 2.02813073929961  13.9430725566491 2.40286692607004  C 14.0610235751888 2.77760311284047  14.1593160906386 3.10303190661479  14.2379501029984 3.379153307393  C 14.3165841153582 3.6947206225681  14.395218127718 4.13848715953308  14.4738521400778 4.71045291828794  C 14.5524861524376 5.2824186770428  14.6311201647975 5.86424591439689  14.7097541771573 6.4559346303502  C 14.827705195697 7.16596108949416  14.9456562142367 7.91543346303502  15.0636072327764 9  Z M 49.2104271000229 25  L 53.2207617303731 13.9703813229572  L 16.3020929274433 13.8520435797665  L 18.3662357518883 25  L 49.2104271000229 25  Z " fill-rule="nonzero" fill="#ffffff" stroke="none" transform="matrix(1 0 0 1 103 3096 )" />
  </g>
</svg>